<svg xmlns="http://www.w3.org/2000/svg" width="50" height="50" viewBox="0 0 50 50">
    <path data-name="path 1" d="m244.059 953.59-2.552 7.392a14.49 14.49 0 0 0-28.209-1.4" transform="translate(-202.138 -938.035)" style="fill:none;stroke:#4d5156;stroke-linejoin:round;stroke-width:2px"/>
    <path data-name="path 2" d="m207.849 985.828 2.551-7.392a14.49 14.49 0 0 0 28.21 1.4" transform="translate(-199.849 -950.384)" style="fill:none;stroke:#4d5156;stroke-linejoin:round;stroke-width:2px"/>
    <path data-name="path 3" d="M229.431 972.846c-1.635 0-2-1.245-2-3.2 0-1.9.369-3.2 2-3.2s2 1.3 2 3.2c0 1.955-.369 3.2-2 3.2" transform="translate(-208.072 -945.348)" style="fill:#0080ff"/>
    <path data-name="path 4" d="M241.442 972.846c-1.634 0-2-1.245-2-3.2 0-1.9.369-3.2 2-3.2s2.005 1.3 2.005 3.2c0 1.955-.371 3.2-2.005 3.2" transform="translate(-213.117 -945.348)" style="fill:#0080ff"/>
</svg>
