<svg xmlns="http://www.w3.org/2000/svg" width="50" height="50" viewBox="0 0 50 50">
    <path data-name="패스 1331" d="M223.372 299.111c3.109 2.518.971 10.309-4.773 17.4s-12.923 10.8-16.032 8.283-.971-10.309 4.774-17.4 12.922-10.801 16.031-8.283z" style="fill:none;stroke:#4d5156;stroke-miterlimit:10;stroke-width:2px" transform="translate(-191.14 -287.322)"/>
    <path data-name="패스 1332" d="M222.782 314.323c.92.746 0 3.4-2.048 5.936s-4.461 3.981-5.382 3.236 0-3.4 2.048-5.936 4.461-3.981 5.382-3.236" transform="translate(-197.238 -294.278)" style="fill:#4d5156"/>
    <path data-name="패스 1333" d="M245.164 332.97v-4.456c0-1.723 1.91-2.31 3.357-1.373 1.521.984 2.727 3.879 1.468 7.888" transform="translate(-210.515 -299.81)" style="fill:none;stroke:#4d5156;stroke-miterlimit:10;stroke-width:2px"/>
    <path data-name="패스 1334" d="M235.635 343.25c0-1.608 1.225-1.972 3.148-1.972 1.872 0 3.148.363 3.148 1.972s-1.276 1.972-3.148 1.972c-1.923 0-3.148-.364-3.148-1.972" transform="translate(-206.321 -306.227)" style="fill:#0080ff"/>
</svg>
