<svg xmlns="http://www.w3.org/2000/svg" width="50" height="50" viewBox="0 0 50 50">
    <path data-name="path 1" d="M242.43 1054.026h-28.821a2.715 2.715 0 0 0-2.716 2.716v1.013a2.716 2.716 0 0 0 2.716 2.716H235.7a2.716 2.716 0 0 1 2.716 2.716v7.656a2.716 2.716 0 0 1-2.716 2.716h-18.078a2.716 2.716 0 0 1-2.716-2.716v-6.169" transform="translate(-201.894 -1033.558)" style="fill:none;stroke:#4d5156;stroke-miterlimit:10;stroke-width:2px"/>
    <path data-name="path 2" d="M227.821 1038.03c-1.325.828-.994 2.025 0 3.609.964 1.543 1.921 2.408 3.246 1.579s.968-2.067 0-3.61c-.99-1.585-1.921-2.407-3.246-1.578" transform="translate(-208.636 -1026.702)" style="fill:#0080ff"/>
    <path data-name="패스 1345" d="M244.731 1038.03c1.325.828.994 2.025 0 3.609-.964 1.543-1.921 2.408-3.246 1.579s-.968-2.067 0-3.61c.99-1.585 1.921-2.407 3.246-1.578" transform="translate(-214.381 -1026.702)" style="fill:#0080ff"/>
</svg>
